Love for All and Sharing is the first step to solving all the problems of humanity.

Website I want to share. 
               
   http://www.scenetime.com
 
 
  Credit to EVERYONE for sharing and seeding back
 especially to SCENETIME.COM where i get all my 
 downloads.


 support www.scenetime.com to grow faster.

                             
                                                            
                                                   

.                 ..................................NFO:....................................*******************************************************************************
               Lawrence.Of.Arabia.1962.PART1.DVDRip.AC3.X264-BARC0DE
*******************************************************************************

-------------------------------------------------------------------------------
                              General Information
-------------------------------------------------------------------------------
Type.................: Movie
Name.................: Lawrence of Arabia
Movie Information....: http://www.imdb.com/title/tt0056172/
Genre................: Adventure | Biography | Drama | War 
-------------------------------------------------------------------------------
                                    PLOT
-------------------------------------------------------------------------------
Epic rumination on a flamboyant and controversial British military figure and his 
conflicted loyalties during wartime service. 

-------------------------------------------------------------------------------
                                    CAST
-------------------------------------------------------------------------------
Peter O'Toole	... 	T.E. Lawrence
Alec Guinness	... 	Prince Feisal
Anthony Quinn	... 	Auda Abu Tayi
Jack Hawkins	... 	General Allenby
Omar Sharif	... 	Sherif Ali
Jos Ferrer	... 	Turkish Bey (as Jose Ferrer)
Anthony Quayle	... 	Colonel Brighton
Claude Rains	... 	Mr. Dryden
Arthur Kennedy	... 	Jackson Bentley
Donald Wolfit	... 	General Murray
I.S. Johar	... 	Gasim
Gamil Ratib	... 	Majid
Michel Ray	... 	Farraj
John Dimech	... 	Daud
Zia Mohyeddin	... 	Tafas

-------------------------------------------------------------------------------
                                    MEDiA iNFO
-------------------------------------------------------------------------------

General
Complete name                    : Lawrence.Of.Arabia.1962.PART1.DVDRip.AC3.X264-BARC0DE.mkv
Format                           : Matroska
File size                        : 1.46 GiB
Duration                         : 1h 52mn
Overall bit rate                 : 1 865 Kbps

Video
ID                               : 1
Format                           : AVC
Format/Info                      : Advanced Video Codec
Format profile                   : High@L3.0
Format settings, CABAC           : Yes
Format settings, ReFrames        : 3 frames
Muxing mode                      : Container profile=Unknown@3.0
Codec ID                         : V_MPEG4/ISO/AVC
Duration                         : 1h 52mn
Bit rate                         : 1 414 Kbps
Width                            : 720 pixels
Height                           : 320 pixels
Display aspect ratio             : 2.25:1
Frame rate                       : 25.000 fps
Color space                      : YUV
Chroma subsampling               : 4:2:0
Bit depth                        : 8 bits
Scan type                        : Progressive
Bits/(Pixel*Frame)               : 0.245
Stream size                      : 1.08 GiB (74%)
Writing library                  : x264 core 79

Audio
ID                               : 2
Format                           : AC-3
Format/Info                      : Audio Coding 3
Mode extension                   : CM (complete main)
Codec ID                         : A_AC3
Duration                         : 1h 52mn
Bit rate mode                    : Constant
Bit rate                         : 448 Kbps
Channel(s)                       : 6 channels
Channel positions                : Front: L C R, Side: L R, LFE
Sampling rate                    : 48.0 KHz
Stream size                      : 359 MiB (24%)
Language                         : English

Text
ID                               : 3
Format                           : VobSub
Codec ID                         : S_VOBSUB
Codec ID/Info                    : The same subtitle format used on DVDs
Language                         : English

Menu
00:00:00.000                     : Chapter 1
00:05:56.920                     : Chapter 2
00:09:08.360                     : Chapter 3
00:11:56.960                     : Chapter 4
00:13:44.040                     : Chapter 5
00:15:46.160                     : Chapter 6
00:17:00.920                     : Chapter 7
00:21:21.600                     : Chapter 8
00:25:39.600                     : Chapter 9
00:35:16.800                     : Chapter 10
00:37:15.960                     : Chapter 11
00:42:03.920                     : Chapter 12
00:47:28.760                     : Chapter 13
00:50:14.800                     : Chapter 14
00:52:52.320                     : Chapter 15
00:54:08.480                     : Chapter 16
00:56:40.920                     : Chapter 17
00:58:51.920                     : Chapter 18
01:00:30.680                     : Chapter 19
01:10:06.480                     : Chapter 20
01:13:46.560                     : Chapter 21
01:15:49.920                     : Chapter 22
01:19:27.040                     : Chapter 23
01:21:25.080                     : Chapter 24
01:23:57.360                     : Chapter 25
01:25:59.880                     : Chapter 26
01:31:21.400                     : Chapter 27
01:38:57.400                     : Chapter 28
01:42:26.800                     : Chapter 29
01:44:46.760                     : Chapter 30
01:47:52.760                     : Chapter 31

-------------------------------------------------------------------------------
                                    NOTES
-------------------------------------------------------------------------------

Ripped from two disk superbit dvd, that's why this rip will be two part as it's source.
Enjoy.